HIERARCHY
ROOT joint_Root
{
	OFFSET 0.0 0.0 0.0
	CHANNELS 6 Xposition Yposition Zposition Zrotation Xrotation Yrotation 
	JOINT Hips
	{
		OFFSET -0.726466 93.3139 -2.00062
		CHANNELS 6 Xposition Yposition Zposition Zrotation Xrotation Yrotation 
		JOINT Spine
		{
			OFFSET 15.7357 0.0 0.0
			CHANNELS 6 Xposition Yposition Zposition Zrotation Xrotation Yrotation 
			JOINT Chest
			{
				OFFSET 8.98455 -0.406207 0.0
				CHANNELS 6 Xposition Yposition Zposition Zrotation Xrotation Yrotation 
				JOINT Neck
				{
					OFFSET 16.3773 0.0 0.0
					CHANNELS 6 Xposition Yposition Zposition Zrotation Xrotation Yrotation 
					JOINT Head
					{
						OFFSET 6.45672 0.0 0.0
						CHANNELS 6 Xposition Yposition Zposition Zrotation Xrotation Yrotation 
						End Site
						{
							OFFSET 0.0 0.0 0.0
						}
					}
				}
				JOINT Shoulder_L
				{
					OFFSET 12.9942 -0.242716 4.98039
					CHANNELS 6 Xposition Yposition Zposition Zrotation Xrotation Yrotation 
					JOINT UpperArm_L
					{
						OFFSET 5.34809 0.0 0.0
						CHANNELS 6 Xposition Yposition Zposition Zrotation Xrotation Yrotation 
						JOINT LowerArm_L
						{
							OFFSET 24.3286 1.87007e-05 0.0
							CHANNELS 6 Xposition Yposition Zposition Zrotation Xrotation Yrotation 
							JOINT Hand_L
							{
								OFFSET 22.2916 0.0 0.0
								CHANNELS 6 Xposition Yposition Zposition Zrotation Xrotation Yrotation 
								End Site
								{
									OFFSET 0.0 0.0 0.0
								}
							}
						}
					}
				}
				JOINT Shoulder_R
				{
					OFFSET 12.9945 -0.242716 -4.98039
					CHANNELS 6 Xposition Yposition Zposition Zrotation Xrotation Yrotation 
					JOINT UpperArm_R
					{
						OFFSET -5.34813 0.0 0.0
						CHANNELS 6 Xposition Yposition Zposition Zrotation Xrotation Yrotation 
						JOINT LowerArm_R
						{
							OFFSET -24.3289 0.000322201 0.0
							CHANNELS 6 Xposition Yposition Zposition Zrotation Xrotation Yrotation 
							JOINT Hand_R
							{
								OFFSET -22.2915 -0.000108084 0.0
								CHANNELS 6 Xposition Yposition Zposition Zrotation Xrotation Yrotation 
								End Site
								{
									OFFSET 0.0 0.0 0.0
								}
							}
						}
					}
				}
			}
		}
		JOINT UpperLeg_L
		{
			OFFSET -2.19248 -6.46944 0.0
			CHANNELS 6 Xposition Yposition Zposition Zrotation Xrotation Yrotation 
			JOINT LowerLeg_L
			{
				OFFSET 39.0811 0.0 -1.23785e-05
				CHANNELS 6 Xposition Yposition Zposition Zrotation Xrotation Yrotation 
				JOINT Foot_L
				{
					OFFSET 40.9854 0.0 -1.26872e-05
					CHANNELS 6 Xposition Yposition Zposition Zrotation Xrotation Yrotation 
					JOINT Toes_L
					{
						OFFSET 11.7543 0.0 0.0
						CHANNELS 6 Xposition Yposition Zposition Zrotation Xrotation Yrotation 
						End Site
						{
							OFFSET 0.0 0.0 0.0
						}
					}
				}
			}
		}
		JOINT UpperLeg_R
		{
			OFFSET -2.19251 6.46944 0.0
			CHANNELS 6 Xposition Yposition Zposition Zrotation Xrotation Yrotation 
			JOINT LowerLeg_R
			{
				OFFSET -39.0811 -0.00228153 -0.0401928
				CHANNELS 6 Xposition Yposition Zposition Zrotation Xrotation Yrotation 
				JOINT Foot_R
				{
					OFFSET -40.9854 0.0 0.0
					CHANNELS 6 Xposition Yposition Zposition Zrotation Xrotation Yrotation 
					JOINT Toes_R
					{
						OFFSET -11.7543 0.0 0.0
						CHANNELS 6 Xposition Yposition Zposition Zrotation Xrotation Yrotation 
						End Site
						{
							OFFSET 0.0 0.0 0.0
						}
					}
				}
			}
		}
	}
}
MOTION
Frames:	9
Frame Time:	0.0333333
0.000000 0.000000 0.000000 0.000000 0.000000 -0.000000 -1.176710 92.352100 -1.882260 88.054300 -0.217066 4.430910 15.735700 0.000005 -0.000001 84.860900 84.885800 -84.276200 8.984550 -0.406207 -0.000000 2.426620 -0.942705 1.188140 16.377300 -0.000001 -0.000001 2.720430 -2.775460 1.073340 6.456720 -0.000001 -0.000000 1.377240 -2.948340 -0.713416 12.994200 -0.242716 4.980390 -90.127200 0.413661 -72.911700 5.348090 -0.000007 -0.000001 -66.652300 44.176300 -15.983400 24.328600 0.000019 0.000005 1.020610 2.374410 -23.267000 22.291600 -0.000001 0.000005 4.258650 5.513170 -7.073260 12.994500 -0.242716 -4.980390 88.010800 6.801400 -73.655100 -5.348130 -0.000001 -0.000004 -63.714000 40.608100 -18.074200 -24.328900 0.000322 -0.000009 3.525590 10.364500 -18.907600 -22.291500 -0.000108 -0.000004 5.595830 5.370020 -1.981430 -2.192480 -6.469440 -0.000000 -175.389000 -4.783280 -2.711540 39.081100 -0.000007 -0.000012 -0.092777 0.220991 22.773700 40.985400 -0.000006 -0.000013 -0.334060 3.943640 -65.917700 11.754300 -0.000000 0.000003 -0.000046 -0.000531 -16.598200 -2.192510 6.469440 -0.000001 -179.792000 13.942800 -179.475000 -39.081100 -0.002282 -0.040193 -0.005843 0.026404 19.144200 -40.985400 0.000008 0.000006 4.400680 6.048310 -65.868200 -11.754300 -0.000006 -0.000006 -0.006261 -0.073188 -19.551900
0.000000 0.000000 0.000000 0.000000 0.000000 -0.000000 -1.108030 92.354000 -1.936170 88.048700 -0.327373 4.441740 15.735700 0.000005 -0.000001 85.294800 84.929100 -84.770800 8.984550 -0.406207 -0.000000 2.346010 -0.856059 1.064530 16.377300 -0.000001 -0.000001 2.817920 -2.747600 1.015130 6.456720 -0.000001 -0.000000 1.670880 -3.081660 -0.537702 12.994200 -0.242716 4.980390 -90.112500 0.362102 -72.735700 5.348090 -0.000007 -0.000001 -66.665200 43.961800 -16.003900 24.328600 0.000019 0.000005 1.043210 2.421250 -23.316800 22.291600 -0.000001 0.000005 4.132580 5.513310 -7.079200 12.994500 -0.242716 -4.980390 87.976800 6.857990 -73.519600 -5.348130 -0.000001 -0.000004 -63.502900 39.443200 -17.842200 -24.328900 0.000322 -0.000009 5.069680 12.609000 -22.117400 -22.291500 -0.000108 -0.000004 2.152180 5.340670 -1.093000 -2.192480 -6.469440 -0.000000 -175.435000 -4.761390 -2.715750 39.081100 -0.000007 -0.000012 -0.092456 0.220070 22.788300 40.985400 -0.000006 -0.000013 -0.309502 3.841650 -65.915800 11.754300 -0.000000 0.000003 -0.000048 -0.000545 -16.598700 -2.192510 6.469440 -0.000001 -179.816000 13.825700 -179.524000 -39.081100 -0.002282 -0.040193 -0.005226 0.024584 19.174400 -40.985400 0.000008 0.000006 4.341870 6.061180 -65.826600 -11.754300 -0.000006 -0.000006 -0.006573 -0.075953 -19.664700
0.000000 0.000000 0.000000 0.000000 0.000000 -0.000000 -1.036570 92.352700 -2.013540 88.059800 -0.429237 4.456330 15.735700 0.000005 -0.000001 85.006000 84.967900 -84.558200 8.984550 -0.406207 -0.000000 2.263910 -0.896949 0.912481 16.377300 -0.000001 -0.000001 2.947700 -2.654860 0.952963 6.456720 -0.000001 -0.000000 1.991180 -3.056380 -0.290039 12.994200 -0.242716 4.980390 -90.092600 0.294280 -72.533700 5.348090 -0.000007 -0.000001 -66.759700 43.628200 -15.860200 24.328600 0.000019 0.000005 1.026440 2.368460 -23.438200 22.291600 -0.000001 0.000005 4.180270 5.511860 -7.018930 12.994500 -0.242716 -4.980390 87.890500 7.014400 -73.215200 -5.348130 -0.000001 -0.000004 -62.504600 37.321800 -18.428300 -24.328900 0.000322 -0.000009 6.552560 13.148000 -26.796900 -22.291500 -0.000108 -0.000004 -0.950574 5.330350 -0.794949 -2.192480 -6.469440 -0.000000 -175.501000 -4.866250 -2.783090 39.081100 -0.000007 -0.000012 -0.090404 0.214524 22.851400 40.985400 -0.000006 -0.000013 -0.257739 3.798940 -65.893000 11.754300 -0.000000 0.000003 -0.000050 -0.000562 -16.599400 -2.192510 6.469440 -0.000001 -179.873000 13.727500 -179.627000 -39.081100 -0.002282 -0.040193 -0.009226 0.035903 19.265100 -40.985400 0.000008 0.000006 4.218920 6.093130 -65.778400 -11.754300 -0.000006 -0.000006 -0.006243 -0.073025 -19.545300
0.000000 0.000000 0.000000 0.000000 0.000000 -0.000000 -0.949754 92.357100 -2.094390 88.039200 -0.696277 4.500520 15.735700 0.000005 -0.000001 84.590100 85.013200 -84.202700 8.984550 -0.406207 -0.000000 2.166700 -0.958565 0.792261 16.377300 -0.000001 -0.000001 3.150800 -2.545820 0.940531 6.456720 -0.000001 -0.000000 2.420570 -2.839100 -0.135599 12.994200 -0.242716 4.980390 -90.059100 0.186248 -72.405000 5.348090 -0.000007 -0.000001 -67.042100 43.229200 -15.518500 24.328600 0.000019 0.000005 1.051730 2.428500 -23.424000 22.291600 -0.000001 0.000005 4.149950 5.511580 -7.007120 12.994500 -0.242716 -4.980390 87.829100 7.040560 -72.814600 -5.348130 -0.000001 -0.000004 -61.107400 33.954400 -20.028700 -24.328900 0.000322 -0.000009 7.652500 12.038500 -32.793300 -22.291500 -0.000108 -0.000004 -1.470650 5.321520 -0.540398 -2.192480 -6.469440 -0.000000 -175.534000 -5.102740 -2.776620 39.081100 -0.000007 -0.000012 -0.088669 0.210042 22.887000 40.985400 -0.000006 -0.000013 -0.194991 3.743950 -65.876400 11.754300 -0.000000 0.000003 -0.000050 -0.000566 -16.599500 -2.192510 6.469440 -0.000001 -179.908000 13.502700 -179.661000 -39.081100 -0.002282 -0.040193 -0.010363 0.039141 19.272100 -40.985400 0.000008 0.000006 4.056750 6.185150 -65.680200 -11.754300 -0.000006 -0.000006 -0.006255 -0.073136 -19.549800
0.000000 0.000000 0.000000 0.000000 0.000000 -0.000000 -0.835342 92.348800 -2.164820 87.999800 -1.117290 4.675980 15.735700 0.000005 -0.000001 84.316000 85.035800 -83.957300 8.984550 -0.406207 -0.000000 2.117060 -1.000320 0.735206 16.377300 -0.000001 -0.000001 3.535060 -2.420670 1.000530 6.456720 -0.000001 -0.000000 2.861200 -2.580230 -0.212258 12.994200 -0.242716 4.980390 -90.058900 0.185458 -72.380400 5.348090 -0.000007 -0.000001 -67.115000 43.195800 -15.231100 24.328600 0.000019 0.000005 1.003900 2.335860 -23.264100 22.291600 -0.000001 0.000005 4.112060 5.507940 -6.856540 12.994500 -0.242716 -4.980390 87.840300 6.783210 -72.292400 -5.348130 -0.000001 -0.000004 -59.611600 29.589400 -22.845900 -24.328900 0.000322 -0.000009 9.546050 11.477900 -40.200500 -22.291500 -0.000108 -0.000004 0.278588 5.301150 0.037384 -2.192480 -6.469440 -0.000000 -175.537000 -5.395520 -2.646410 39.081100 -0.000007 -0.000012 -0.088095 0.207464 23.007500 40.985400 -0.000006 -0.000013 -0.146384 3.591580 -65.926600 11.754300 -0.000000 0.000003 -0.000041 -0.000473 -16.596000 -2.192510 6.469440 -0.000001 -179.989000 13.246400 -179.603000 -39.081100 -0.002282 -0.040193 -0.015720 0.054172 19.367900 -40.985400 0.000008 0.000006 3.892990 6.383450 -65.624000 -11.754300 -0.000006 -0.000006 -0.006376 -0.074215 -19.593800
0.000000 0.000000 0.000000 0.000000 0.000000 -0.000000 -0.704728 92.352700 -2.252280 87.938600 -1.624410 4.823550 15.735700 0.000005 -0.000001 84.011400 85.086500 -83.693000 8.984550 -0.406207 -0.000000 2.010650 -1.040570 0.654396 16.377300 -0.000001 -0.000001 3.901270 -2.239380 1.113510 6.456720 -0.000001 -0.000000 3.590290 -2.232230 -0.192531 12.994200 -0.242716 4.980390 -90.042500 0.133096 -72.290300 5.348090 -0.000007 -0.000001 -67.152000 43.217200 -15.068800 24.328600 0.000019 0.000005 1.158530 2.752520 -22.836200 22.291600 -0.000001 0.000005 4.101600 5.508630 -6.884960 12.994500 -0.242716 -4.980390 87.935500 6.333080 -71.902600 -5.348130 -0.000001 -0.000004 -58.310200 24.601800 -26.532700 -24.328900 0.000322 -0.000009 13.167800 11.680700 -49.124300 -22.291500 -0.000108 -0.000004 2.767550 5.274680 0.769432 -2.192480 -6.469440 -0.000000 -175.539000 -5.626820 -2.482280 39.081100 -0.000007 -0.000012 -0.088220 0.207378 23.045400 40.985400 -0.000006 -0.000013 -0.102879 3.368420 -65.954500 11.754300 -0.000000 0.000003 -0.000044 -0.000504 -16.597200 -2.192510 6.469440 -0.000001 179.949000 12.964500 -179.533000 -39.081100 -0.002282 -0.040193 -0.018499 0.062198 19.332800 -40.985400 0.000008 0.000006 3.600780 6.676240 -65.459800 -11.754300 -0.000006 -0.000006 -0.006252 -0.073104 -19.548500
0.000000 0.000000 0.000000 0.000000 0.000000 -0.000000 -0.559171 92.344500 -2.322660 87.905500 -2.132410 5.010240 15.735700 0.000005 -0.000001 84.432800 85.134200 -84.171700 8.984550 -0.406207 -0.000000 1.922100 -0.956795 0.537799 16.377300 -0.000001 -0.000001 4.249970 -2.054370 1.236390 6.456720 -0.000001 -0.000000 4.344790 -2.091780 -0.091253 12.994200 -0.242716 4.980390 -90.027600 0.085868 -72.164800 5.348090 -0.000007 -0.000001 -67.180800 43.017300 -15.102400 24.328600 0.000019 0.000005 1.262460 3.082270 -22.285700 22.291600 -0.000001 0.000005 4.112750 5.506960 -6.816310 12.994500 -0.242716 -4.980390 88.106400 5.735590 -71.695000 -5.348130 -0.000001 -0.000004 -57.711900 18.572600 -30.386300 -24.328900 0.000322 -0.000009 17.959400 10.818600 -59.923500 -22.291500 -0.000108 -0.000004 4.176810 5.237730 1.752690 -2.192480 -6.469440 -0.000000 -175.592000 -5.883020 -2.345900 39.081100 -0.000007 -0.000012 -0.086186 0.201386 23.169200 40.985400 -0.000006 -0.000013 -0.047584 3.078130 -66.002000 11.754300 -0.000000 0.000003 -0.000045 -0.000517 -16.597600 -2.192510 6.469440 -0.000001 179.860000 12.524500 -179.476000 -39.081100 -0.002282 -0.040193 -0.021957 0.071632 19.437900 -40.985400 0.000008 0.000006 3.449390 6.828730 -65.402200 -11.754300 -0.000006 -0.000006 -0.006648 -0.076614 -19.691700
0.000000 0.000000 0.000000 0.000000 0.000000 -0.000000 -0.409228 92.352200 -2.411690 87.856700 -2.594430 5.066280 15.735700 0.000005 -0.000001 85.421300 85.219900 -85.209900 8.984550 -0.406207 -0.000000 1.765260 -0.773785 0.434338 16.377300 -0.000001 -0.000001 4.512670 -1.906670 1.413690 6.456720 -0.000001 -0.000000 4.956430 -2.079490 0.024557 12.994200 -0.242716 4.980390 -90.008300 0.025391 -71.960600 5.348090 -0.000007 -0.000001 -67.384500 42.441100 -15.075200 24.328600 0.000019 0.000005 1.393610 3.463920 -21.931300 22.291600 -0.000001 0.000005 4.158510 5.504390 -6.711220 12.994500 -0.242716 -4.980390 88.288200 5.151220 -71.589300 -5.348130 -0.000001 -0.000004 -57.511900 12.004600 -34.735600 -24.328900 0.000322 -0.000009 20.653900 7.337420 -71.284900 -22.291500 -0.000108 -0.000004 5.839930 5.202320 2.660380 -2.192480 -6.469440 -0.000000 -175.656000 -5.981190 -2.291790 39.081100 -0.000007 -0.000012 -0.084177 0.196503 23.189100 40.985400 -0.000006 -0.000013 -0.015863 2.715200 -66.000400 11.754300 -0.000000 0.000003 -0.000046 -0.000523 -16.597900 -2.192510 6.469440 -0.000001 179.838000 12.149800 -179.518000 -39.081100 -0.002282 -0.040193 -0.022487 0.073203 19.421300 -40.985400 0.000008 0.000006 3.310870 6.940250 -65.260900 -11.754300 -0.000006 -0.000006 -0.006290 -0.073446 -19.562500
0.000000 0.000000 0.000000 0.000000 0.000000 -0.000000 -0.265937 92.350700 -2.489610 87.766500 -2.818690 5.097770 15.735700 0.000005 -0.000001 85.831400 85.298100 -85.654900 8.984550 -0.406207 -0.000000 1.614010 -0.692672 0.362328 16.377300 -0.000001 -0.000001 4.807140 -1.881210 1.558050 6.456720 -0.000001 -0.000000 5.300610 -2.145490 0.147988 12.994200 -0.242716 4.980390 -89.998400 -0.004941 -71.696100 5.348090 -0.000007 -0.000001 -67.548000 41.819200 -14.968600 24.328600 0.000019 0.000005 1.400270 3.472810 -21.975300 22.291600 -0.000001 0.000005 4.251150 5.503870 -6.689750 12.994500 -0.242716 -4.980390 88.468900 4.590660 -71.532600 -5.348130 -0.000001 -0.000004 -57.776000 4.977060 -40.528600 -24.328900 0.000322 -0.000009 21.220300 3.541060 -80.963400 -22.291500 -0.000108 -0.000004 8.135190 5.217380 2.282820 -2.192480 -6.469440 -0.000000 -175.678000 -6.064240 -2.363640 39.081100 -0.000007 -0.000012 -0.081231 0.188366 23.327800 40.985400 -0.000006 -0.000013 0.064461 2.545710 -66.028900 11.754300 -0.000000 0.000003 -0.000045 -0.000518 -16.597700 -2.192510 6.469440 -0.000001 179.856000 11.916000 -179.571000 -39.081100 -0.002282 -0.040193 -0.022293 0.072627 19.427700 -40.985400 0.000008 0.000006 3.231560 6.988570 -65.165400 -11.754300 -0.000006 -0.000006 -0.006438 -0.074767 -19.616400
